<mxfile host="app.diagrams.net" modified="2023-07-01T06:49:46.420Z" agent="Mozilla/5.0 (Windows NT 10.0; Win64; x64) AppleWebKit/537.36 (KHTML, like Gecko) Chrome/114.0.0.0 Safari/537.36" etag="E1KbN2rKwS3eOJR6GaJb" version="21.5.2" type="device">
  <diagram name="Page-1" id="hT-UZgU1gNCD3H1cg0O2">
    <mxGraphModel dx="880" dy="444" grid="1" gridSize="10" guides="1" tooltips="1" connect="1" arrows="1" fold="1" page="1" pageScale="1" pageWidth="850" pageHeight="1100" math="0" shadow="0">
      <root>
        <mxCell id="0" />
        <mxCell id="1" parent="0" />
        <mxCell id="DbxMBtvlwv05wNmVgwbs-1" value="" style="rounded=0;whiteSpace=wrap;html=1;fillColor=#0C0812;strokeColor=none;" vertex="1" parent="1">
          <mxGeometry y="10" width="720" height="430" as="geometry" />
        </mxCell>
        <mxCell id="DbxMBtvlwv05wNmVgwbs-2" value="" style="rounded=1;whiteSpace=wrap;html=1;strokeColor=none;" vertex="1" parent="1">
          <mxGeometry x="150" y="100" width="160" height="50" as="geometry" />
        </mxCell>
        <mxCell id="DbxMBtvlwv05wNmVgwbs-9" value="" style="ellipse;whiteSpace=wrap;html=1;fillColor=#0C0812;strokeColor=none;" vertex="1" parent="1">
          <mxGeometry x="325" y="172.5" width="70" height="65" as="geometry" />
        </mxCell>
        <mxCell id="DbxMBtvlwv05wNmVgwbs-10" value="" style="ellipse;whiteSpace=wrap;html=1;fillColor=#0C0812;strokeColor=none;" vertex="1" parent="1">
          <mxGeometry x="460" y="172.5" width="70" height="65" as="geometry" />
        </mxCell>
        <mxCell id="DbxMBtvlwv05wNmVgwbs-11" value="" style="ellipse;whiteSpace=wrap;html=1;fillColor=#0C0812;strokeColor=none;" vertex="1" parent="1">
          <mxGeometry x="600" y="172.5" width="70" height="65" as="geometry" />
        </mxCell>
        <mxCell id="DbxMBtvlwv05wNmVgwbs-12" value="" style="triangle;whiteSpace=wrap;html=1;rotation=-180;strokeColor=none;" vertex="1" parent="1">
          <mxGeometry x="200" y="10" width="520" height="430" as="geometry" />
        </mxCell>
        <mxCell id="DbxMBtvlwv05wNmVgwbs-13" value="" style="ellipse;whiteSpace=wrap;html=1;fillColor=#0C0812;strokeColor=none;" vertex="1" parent="1">
          <mxGeometry x="375" y="185" width="85" height="80" as="geometry" />
        </mxCell>
        <mxCell id="DbxMBtvlwv05wNmVgwbs-14" value="" style="ellipse;whiteSpace=wrap;html=1;fillColor=#0C0812;strokeColor=none;" vertex="1" parent="1">
          <mxGeometry x="570" y="185" width="85" height="80" as="geometry" />
        </mxCell>
      </root>
    </mxGraphModel>
  </diagram>
</mxfile>
